grf
version=1
nRows=6
nColumns=37
inDegrees=no
endheader
time	ground_force_1_vx	ground_force_1_vy	ground_force_1_vz	ground_force_1_px	ground_force_1_py	ground_force_1_pz	ground_moment_1_mx	ground_moment_1_my	ground_moment_1_mz	ground_force_2_vx	ground_force_2_vy	ground_force_2_vz	ground_force_2_px	ground_force_2_py	ground_force_2_pz	ground_moment_2_mx	ground_moment_2_my	ground_moment_2_mz	ground_force_3_vx	ground_force_3_vy	ground_force_3_vz	ground_force_3_px	ground_force_3_py	ground_force_3_pz	ground_moment_3_mx	ground_moment_3_my	ground_moment_3_mz	ground_force_4_vx	ground_force_4_vy	ground_force_4_vz	ground_force_4_px	ground_force_4_py	ground_force_4_pz	ground_moment_4_mx	ground_moment_4_my	ground_moment_4_mz
      2.69000000	      0.00000000	     -0.00000000	      0.00000000	      0.00000000	      0.00000000	      0.00000000	      0.00000000	      0.00000000	      0.00000000	     14.00254250	    -15.26583195	   -817.65325928	   -301.33816776	  -1135.53152605	      0.00000000	      0.00000000	      0.00000000	    379.36425412	      0.00000000	     -0.00000000	      0.00000000	      0.00000000	      0.00000000	      0.00000000	      0.00000000	      0.00000000	      0.00000000	    -34.97826244	     16.18422623	     76.11639404	    599.83625130	   -564.91867726	      0.00000000	      0.00000000	      0.00000000	     15.82691867
      2.70000000	      0.00000000	     -0.00000000	      0.00000000	      0.00000000	      0.00000000	      0.00000000	      0.00000000	      0.00000000	      0.00000000	     11.42239571	    -13.14009094	   -816.48370361	   -301.10785079	  -1136.63656663	      0.00000000	      0.00000000	      0.00000000	    103.53577309	      0.00000000	     -0.00000000	      0.00000000	      0.00000000	      0.00000000	      0.00000000	      0.00000000	      0.00000000	      0.00000000	    -35.05091719	     15.85493394	     75.14330292	    607.57079841	   -566.18216420	      0.00000000	      0.00000000	      0.00000000	    127.33887072
      2.71000000	      0.00000000	     -0.00000000	      0.00000000	      0.00000000	      0.00000000	      0.00000000	      0.00000000	      0.00000000	      0.00000000	      9.89899158	    -11.96033478	   -810.48114014	   -300.64007789	  -1137.07377360	      0.00000000	      0.00000000	     -0.00000000	   -193.03605480	      0.00000000	     -0.00000000	      0.00000000	      0.00000000	      0.00000000	      0.00000000	      0.00000000	      0.00000000	      0.00000000	    -35.13747266	     16.03441736	     75.81855011	    604.26372109	   -563.72538988	      0.00000000	      0.00000000	     -0.00000000	    -30.76609854
      2.72000000	      0.00000000	     -0.00000000	      0.00000000	      0.00000000	      0.00000000	      0.00000000	      0.00000000	      0.00000000	      0.00000000	      9.29115772	    -10.32256031	   -800.92016602	   -300.11952403	  -1138.92096615	      0.00000000	      0.00000000	     -0.00000000	   -962.41954874	      0.00000000	     -0.00000000	      0.00000000	      0.00000000	      0.00000000	      0.00000000	      0.00000000	      0.00000000	      0.00000000	    -35.23694470	     16.11431239	     76.16928864	    602.13487363	   -567.27009755	      0.00000000	      0.00000000	      0.00000000	    170.52256505
      2.73000000	      0.00000000	     -0.00000000	      0.00000000	      0.00000000	      0.00000000	      0.00000000	      0.00000000	      0.00000000	      0.00000000	      7.49694681	     -7.21630144	   -794.24993896	   -299.82042664	  -1139.62663626	      0.00000000	      0.00000000	     -0.00000000	  -1193.34810727	      0.00000000	     -0.00000000	      0.00000000	      0.00000000	      0.00000000	      0.00000000	      0.00000000	      0.00000000	      0.00000000	    -34.70988325	     15.92462843	     76.10682678	    602.71753827	   -566.51201052	      0.00000000	      0.00000000	     -0.00000000	     -8.01359014
      2.74000000	      0.00000000	     -0.00000000	      0.00000000	      0.00000000	      0.00000000	      0.00000000	      0.00000000	      0.00000000	      0.00000000	      6.77681017	     -7.38508034	   -798.99407959	   -300.51671734	  -1140.12075830	      0.00000000	      0.00000000	     -0.00000000	  -1504.51720437	      0.00000000	     -0.00000000	      0.00000000	      0.00000000	      0.00000000	      0.00000000	      0.00000000	      0.00000000	      0.00000000	    -34.55574656	     16.27516095	     76.09586334	    599.71416151	   -560.91112666	      0.00000000	      0.00000000	     -0.00000000	   -246.78119233
